# xmcd
#
# Track frame offsets:
# 150
# 22377
# 47442
# 69207
# 95777
# 122535
# 144847
# 169462
# 193462
# 212637
# 234335
#
# Disc length: 3450 seconds
#
#
# Revision: 0
# Processed by: cddbd v1.5.1PL0 Copyright (c) Steve Scherf et al.
# Submitted via: FreeRIP 2.80 
#
DISCID=9e0d780b
DTITLE=Quang Le - Suong Trang Mien Que Ngoai
DYEAR=2003
DGENRE=
TTITLE0=Suong Trang Mien Que Ngoai (Dinh Mien Vu)
TTITLE1=Nhung Ngay Xua Than Ai (Pham The My)
TTITLE2=Gap Nhau (Hoang Thi Tho)
TTITLE3=Ai Nho Chang Ai (Hoang Thi Tho)
TTITLE4=Thu Cho Vo Hien (Song Ngoc)
TTITLE5=Sao Em Vo Tinh
TTITLE6=Nguoi Mang Tam Su (Nhu Phy)
TTITLE7=Ta Ao Cuoi (Hoang Thi Tho)
TTITLE8=Duyen Kiep (Dien An)
TTITLE9=Thuong Ve Mien Trung (Duy Khanh)
TTITLE10=Da Ta (Anh Viet Thu)
EXTD=TNCD309
EXTT0=
EXTT1=
EXTT2=
EXTT3=
EXTT4=
EXTT5=
EXTT6=
EXTT7=
EXTT8=
EXTT9=
EXTT10=
PLAYORDER=
